HIERARCHY
ROOT Hips
{
     OFFSET 19.46130 96.90910 14.41610
     CHANNELS 6 Xposition Yposition Zposition Zrotation Xrotation Yrotation
     JOINT Spine
     {
          OFFSET -0.00000 11.89050 -0.00000
          CHANNELS 3 Zrotation Xrotation Yrotation
          JOINT Spine1
          {
               OFFSET 0.00000 25.65740 0.12766
               CHANNELS 3 Zrotation Xrotation Yrotation
               JOINT HEad
               {
                    OFFSET 0.00000 8.73416 0.01134
                    CHANNELS 3 Zrotation Xrotation Yrotation
                    End Site
                    {
                         OFFSET -0.29000 12.77420 2.51395
                    }
               }
               JOINT LeftShoulder1
               {
                    OFFSET 8.99000 -0.36225 -0.22000
                    CHANNELS 3 Zrotation Xrotation Yrotation
                    JOINT LeftArm
                    {
                         OFFSET 10.28270 -0.00338 0.32212
                         CHANNELS 3 Zrotation Xrotation Yrotation
                         JOINT LeftForeArm
                         {
                              OFFSET 32.76690 0.09914 -1.42434
                              CHANNELS 3 Zrotation Xrotation Yrotation
                              JOINT LeftHand
                              {
                                   OFFSET 27.56430 0.08536 1.02216
                                   CHANNELS 3 Zrotation Xrotation Yrotation
                                   End Site
                                   {
                                        OFFSET 16.74430 -0.60000 1.50291
                                   }
                              }
                         }
                    }
               }
               JOINT RightShoulder
               {
                    OFFSET -8.99000 -0.36225 -0.22000
                    CHANNELS 3 Zrotation Xrotation Yrotation
                    JOINT RightArm
                    {
                         OFFSET -10.28270 -0.00338 0.32212
                         CHANNELS 3 Zrotation Xrotation Yrotation
                         JOINT RightForeArm
                         {
                              OFFSET -32.89710 0.09914 -1.42434
                              CHANNELS 3 Zrotation Xrotation Yrotation
                              JOINT RightHand
                              {
                                   OFFSET -27.49210 0.08536 1.02216
                                   CHANNELS 3 Zrotation Xrotation Yrotation
                                   End Site
                                   {
                                        OFFSET -16.63120 -0.60000 1.50291
                                   }
                              }
                         }
                    }
               }
          }
     }
     JOINT LeftUpLeg
     {
          OFFSET 8.94580 -8.66707 0.10165
          CHANNELS 3 Zrotation Xrotation Yrotation
          JOINT LeftLeg
          {
               OFFSET -0.00000 -44.42270 1.37270
               CHANNELS 3 Zrotation Xrotation Yrotation
               JOINT LeftFoot
               {
                    OFFSET -0.25355 -42.09240 -1.46059
                    CHANNELS 3 Zrotation Xrotation Yrotation
                    JOINT LeftToes
                    {
                         OFFSET -0.04000 -4.41509 8.49910
                         CHANNELS 3 Zrotation Xrotation Yrotation
                         End Site
                         {
                              OFFSET 0.08000 -0.04745 9.77979
                         }
                    }
               }
          }
     }
     JOINT RightUpLeg
     {
          OFFSET -8.94580 -8.66707 0.10165
          CHANNELS 3 Zrotation Xrotation Yrotation
          JOINT RightLeg
          {
               OFFSET -0.00000 -44.42270 1.37270
               CHANNELS 3 Zrotation Xrotation Yrotation
               JOINT RightFoot
               {
                    OFFSET 0.25355 -42.09240 -1.46059
                    CHANNELS 3 Zrotation Xrotation Yrotation
                    JOINT RightToes
                    {
                         OFFSET 0.04000 -4.41509 8.49910
                         CHANNELS 3 Zrotation Xrotation Yrotation
                         End Site
                         {
                              OFFSET -0.08000 -0.13745 9.77979
                         }
                    }
               }
          }
     }
}
MOTION
Frames: 15
Frame Time: 0.01667
16.07790 87.03100 115.92900 12.47610 6.59410 119.46500 2.68285 7.60672 -1.68558 -1.86986 15.88220 -2.48681 -4.16009 -2.79396 57.97770 -0.00000 -0.00000 0.00000 -52.17640 -72.46680 -47.14290 -16.08510 25.61980 -74.82320 5.55594 9.67997 -0.87718 10.29420 0.30270 -0.57544 -52.38980 -53.10390 -41.98760 5.37888 5.98040 72.52300 -5.55712 9.68432 0.87760 29.18490 -21.32550 7.46011 -9.23627 42.26850 35.45050 -24.46060 11.02890 3.94563 1.39454 -18.84160 -13.89890 -22.72170 3.45737 0.83830 5.60921 43.10640 6.80334 4.24427 -24.36360 0.35631 -17.83890 -21.93920 2.93540 
15.94160 87.81410 116.61900 12.28540 6.62010 118.74200 3.03022 7.36442 -1.58876 -1.86002 15.43560 -2.21086 -5.15351 0.33947 57.84750 -0.00000 -0.00000 0.00000 -50.84520 -72.30710 -44.01330 -15.72920 24.76830 -74.57220 5.55594 9.67997 -0.87718 10.27450 0.34873 -0.23018 -51.11570 -55.12290 -38.65930 6.94588 9.26564 74.99820 -5.55712 9.68432 0.87760 28.26140 -20.31940 5.80701 -7.94601 40.09080 31.46870 -26.48820 11.35150 4.36356 1.48734 -16.70650 -12.49520 -21.76810 3.43839 0.79252 3.75484 41.72650 8.11920 4.40472 -25.24430 0.41077 -16.10610 -19.81530 3.25837 
15.79280 88.68490 117.18100 11.87810 6.63508 118.07100 3.31595 7.04443 -1.43752 -1.96584 14.82210 -1.84739 -5.91905 3.03385 57.69240 -0.00000 -0.00000 0.00000 -49.55440 -72.25320 -41.60030 -15.36630 23.76150 -74.21220 5.55594 9.67997 -0.87718 10.19200 0.37841 0.00124 -49.94280 -57.14490 -35.63010 8.41867 12.51830 77.31200 -5.55712 9.68432 0.87760 27.18740 -19.32720 4.21052 -6.45820 37.87250 26.59830 -28.91050 12.13690 4.98171 1.48710 -16.09540 -11.90790 -20.72580 3.37313 0.98839 1.61715 40.10030 9.27357 5.00983 -26.01360 0.53821 -14.21940 -17.51720 3.21753 
15.61520 89.58720 117.66200 11.35510 6.66140 117.39100 3.52147 6.73968 -1.20891 -2.14908 14.21810 -1.34467 -6.45867 4.89591 57.51600 -0.00000 -0.00000 0.00000 -48.91360 -72.44180 -40.51420 -14.99690 22.60260 -73.77460 5.55594 9.67997 -0.87718 9.97064 0.39005 0.11681 -49.81180 -59.38080 -33.83070 9.88300 15.85240 79.55580 -5.55712 9.68432 0.87760 26.00040 -18.29950 2.67927 -4.94028 35.72860 21.23040 -31.44280 12.78630 5.62337 1.47880 -16.18270 -11.89110 -19.91860 3.33098 1.33423 -0.12917 38.21240 9.93246 5.78749 -26.47260 0.68986 -12.64770 -15.58970 3.10454 
15.41330 90.47160 118.08100 10.77630 6.65144 116.64400 3.66761 6.48049 -0.89086 -2.35742 13.68130 -0.66858 -6.79596 5.83840 57.36150 -0.00000 -0.00000 0.00000 -49.24000 -72.87460 -40.99590 -14.61890 21.34780 -73.30900 5.55594 9.67997 -0.87718 9.57153 0.38566 0.13539 -51.21680 -61.86900 -33.67350 11.36490 19.25290 81.66520 -5.55712 9.68432 0.87760 24.88510 -17.23960 1.26753 -3.69803 33.79810 16.14900 -33.61900 12.74770 6.02902 1.50693 -15.94740 -12.00060 -19.42360 3.29089 1.62426 -1.33768 36.13250 10.17570 6.53063 -26.65350 0.82710 -11.61940 -14.30110 3.07903 
15.20200 91.28740 118.45400 10.18840 6.55075 115.76400 3.75389 6.26068 -0.47214 -2.56007 13.19340 0.20504 -6.93778 6.06355 57.25860 -0.00000 -0.00000 0.00000 -50.59870 -73.50850 -42.98190 -14.27230 20.17310 -72.88830 5.55594 9.67997 -0.87718 9.01726 0.36994 0.08462 -54.11470 -64.45400 -35.02460 12.83740 22.56400 83.47980 -5.55712 9.68432 0.87760 24.03070 -16.14730 0.11590 -2.86646 32.16840 11.96060 -35.02370 12.01900 6.07721 1.55858 -15.28550 -11.99440 -19.13590 3.17758 1.75707 -2.17203 34.01550 10.24830 7.16732 -26.78590 0.94541 -11.05570 -13.54310 3.21367 
14.99760 91.98970 118.79700 9.64925 6.34523 114.72200 3.78214 6.06131 0.02822 -2.74004 12.71600 1.24616 -6.90382 5.91076 57.20500 -0.00000 -0.00000 0.00000 -52.84500 -74.31100 -46.16050 -14.03560 19.31990 -72.58860 5.55594 9.67997 -0.87718 8.33408 0.34729 -0.01206 -57.81690 -66.93900 -37.17750 14.23470 25.55240 84.83300 -5.55712 9.68432 0.87760 23.48700 -14.99070 -0.62999 -2.30469 30.84640 8.78197 -35.62460 10.99630 5.87124 1.58163 -14.89960 -11.92040 -18.90300 2.95019 1.77635 -2.82572 32.04510 10.31760 7.60091 -26.99280 1.03453 -10.80260 -13.14200 3.45771 
14.80960 92.56090 119.10300 9.20796 6.06260 113.59500 3.77477 5.87052 0.55206 -2.88074 12.23240 2.33865 -6.75816 5.68278 57.17990 -0.00000 -0.00000 0.00000 -55.77110 -75.24610 -50.16550 -13.97700 18.96280 -72.45210 5.55594 9.67997 -0.87718 7.53302 0.32110 -0.13585 -60.99660 -69.20790 -38.85600 15.43290 27.93340 85.62910 -5.55712 9.68432 0.87760 23.13540 -13.74040 -0.95906 -1.74253 29.78010 6.35134 -35.70960 10.01870 5.58125 1.54238 -15.43260 -11.94510 -18.62530 2.66389 1.77278 -3.40716 30.30020 10.40720 7.75183 -27.12960 1.07027 -10.84460 -13.11380 3.71771 
14.63780 92.99040 119.37300 8.88896 5.74447 112.57300 3.75726 5.68809 1.01010 -2.96181 11.75930 3.30618 -6.58572 5.56089 57.16440 -0.00000 -0.00000 0.00000 -59.27330 -76.24340 -54.78740 -14.11020 19.12660 -72.47310 5.55594 9.67997 -0.87718 6.65400 0.29462 -0.26943 -62.05410 -71.21380 -38.50360 16.26430 29.43910 85.89140 -5.55712 9.68432 0.87760 22.80860 -12.45590 -1.05530 -0.99615 28.94900 4.28573 -35.61690 9.08395 5.27478 1.44945 -16.86060 -12.18620 -18.26300 2.39602 1.80300 -3.93176 28.85100 10.44260 7.68130 -27.04730 1.05230 -11.19510 -13.49970 3.93431 
14.47320 93.27710 119.60500 8.69584 5.42278 111.88200 3.75272 5.52470 1.31874 -2.96834 11.33730 3.97854 -6.43075 5.57841 57.14870 -0.00000 -0.00000 0.00000 -63.45570 -77.19270 -60.07340 -14.39830 19.70620 -72.61100 5.55594 9.67997 -0.87718 5.78390 0.27111 -0.39479 -59.80390 -72.86690 -34.93400 16.61280 29.96080 85.74780 -5.55712 9.68432 0.87760 22.40010 -11.25970 -1.22616 -0.08698 28.36620 2.36720 -35.52100 7.92383 4.89951 1.33362 -18.63340 -12.63800 -17.82400 2.22113 1.86623 -4.35866 27.75130 10.33920 7.54275 -26.77380 1.01014 -11.71060 -14.12800 4.05960 
14.30260 93.42980 119.79600 8.62184 5.11344 111.68100 3.78203 5.39548 1.43197 -2.89572 11.01140 4.26066 -6.27357 5.64837 57.11910 -0.00000 -0.00000 0.00000 -68.56570 -77.95520 -66.22540 -14.78700 20.54650 -72.81470 5.55594 9.67997 -0.87718 5.01737 0.25310 -0.49284 -54.26320 -73.98230 -28.15320 16.51780 29.65340 85.36790 -5.55712 9.68432 0.87760 21.91070 -10.26000 -1.73207 0.79731 28.02340 0.70816 -35.36000 6.32428 4.38160 1.22116 -20.23210 -13.17260 -17.33480 2.18251 1.91207 -4.65073 27.02870 10.05820 7.46235 -26.45120 0.97558 -12.16670 -14.70740 4.08731 
14.11860 93.47400 119.94600 8.65628 4.81224 111.99400 3.83945 5.31271 1.36580 -2.73795 10.81020 4.17510 -6.07576 5.68039 57.03610 -0.00000 -0.00000 0.00000 -74.72820 -78.37980 -73.30200 -15.23690 21.53070 -73.04370 5.55594 9.67997 -0.87718 4.41493 0.24069 -0.55995 -47.02090 -74.44480 -19.78520 16.17630 28.90750 84.92400 -5.55712 9.68432 0.87760 21.42350 -9.48824 -2.63028 1.45044 27.82810 -0.33268 -34.88520 4.34443 3.71532 1.12172 -21.47500 -13.59350 -16.81160 2.29362 1.88441 -4.80014 26.63760 9.61290 7.51066 -26.20520 0.96812 -12.41500 -15.02560 4.08898 
13.92450 93.45770 120.06700 8.78281 4.50735 112.72100 3.86585 5.28035 1.19793 -2.48979 10.73450 3.85272 -5.80744 5.65947 56.82710 -0.00000 -0.00000 0.00000 -81.58700 -78.32980 -80.86490 -15.73380 22.61750 -73.27790 5.55594 9.67997 -0.87718 4.01165 0.23179 -0.61750 -40.40190 -74.42510 -12.24900 15.84730 28.21490 84.58410 -5.55712 9.68432 0.87760 21.03300 -8.91214 -3.73702 1.78227 27.61810 -0.47699 -33.77570 2.19778 2.95651 1.04343 -22.30410 -13.68030 -16.26720 2.56174 1.78017 -4.79087 26.42970 9.03059 7.69348 -26.09210 0.99159 -12.40040 -14.99540 4.12983 
13.72820 93.44630 120.17900 8.97153 4.21349 113.70600 3.75748 5.29332 1.02723 -2.17030 10.75980 3.45741 -5.44058 5.59599 56.43820 -0.00000 -0.00000 0.00000 -88.10240 -77.74480 -87.81410 -16.26510 23.78910 -73.51770 5.55594 9.67997 -0.87718 3.84356 0.22510 -0.68173 -35.97660 -74.31360 -7.22215 15.74800 27.99870 84.48560 -5.55712 9.68432 0.87760 20.75520 -8.49051 -4.71315 1.88815 27.25160 0.11118 -31.74440 0.02542 2.16771 1.01004 -22.51000 -13.21770 -15.74980 3.00442 1.65414 -4.57356 26.18440 8.30677 7.94711 -26.04720 1.03114 -12.17500 -14.68640 4.19782 
13.53490 93.49310 120.29500 9.16950 3.97846 114.82300 3.42859 5.33707 0.91906 -1.82627 10.84350 3.09707 -4.98220 5.47668 55.89140 -0.00000 -0.00000 0.00000 -92.98200 -76.70350 -92.85810 -16.78290 24.97060 -73.78280 5.55594 9.67997 -0.87718 3.94112 0.22176 -0.73666 -34.13510 -74.43810 -5.15710 15.99670 28.48270 84.69490 -5.55712 9.68432 0.87760 20.49210 -8.22333 -5.22253 2.03540 26.69680 0.75288 -28.69280 -2.06799 1.42849 1.02193 -22.01080 -12.14790 -15.34070 3.62516 1.56056 -4.11605 25.71000 7.41273 8.16189 -25.88300 1.05564 -11.91620 -14.34160 4.23538 
